<?xml version="1.0" encoding="utf-8"?>
<svg viewBox="2.9070000648498535 10.659000396728516 494.1860046386719 67.24199676513672" width="494.1860046386719" height="67.24199676513672" xmlns="http://www.w3.org/2000/svg">
  <defs>
    <linearGradient id="gradient-2" gradientUnits="userSpaceOnUse" x1="335.756" y1="26.163" x2="335.756" y2="104.167" gradientTransform="matrix(-0.112367, 0.856409, -5.829085, -0.576929, 664.071898, -207.078701)">
      <stop offset="0" style="stop-color: rgb(255, 255, 255);"/>
      <stop offset="1" style="stop-color: rgb(152, 130, 78);"/>
    </linearGradient>
  </defs>
  <g>
    <rect x="2.907" y="10.659" width="494.186" height="67.242" style="fill: url(#gradient-2);"/>
    <g transform="matrix(0.616698, 0, 0, -0.559619, 347.076202, 54.724991)" style="">
      <g transform="">
        <path d="M 20.83382 20.64997 L 16.77825 20.64997 C 15.04668 20.64997 13.63408 19.33749 13.63408 17.67498 L 13.63408 14.43752 L 11.58346 14.43752 L 11.58346 17.01877 C 11.58346 17.93752 11.62906 19.11873 10.94552 19.8625 C 10.53542 20.30002 10.07973 20.64997 9.578513 21 C 9.213943 21.21876 8.849373 21.48123 8.576003 21.83126 C 8.439279 22.00623 8.348156 22.22499 8.257033 22.44375 C 8.80385 22.66251 9.396189 22.70622 9.943006 22.66251 C 10.21645 22.66251 10.4443 22.83749 10.4443 23.10003 C 10.48982 23.3625 10.30758 23.58126 10.07973 23.66874 C 9.396189 23.75623 8.667126 23.66874 7.983586 23.44998 C 7.983586 23.53747 7.983586 23.62496 7.937985 23.66874 C 7.892463 24.06248 7.983586 24.45622 8.074709 24.85003 C 8.439279 25.76878 9.350666 26.16251 10.21645 26.46876 C 10.3531 26.51247 10.53542 26.55625 10.76327 26.60003 L 10.89999 26.64374 L 10.94552 26.64374 C 11.17336 26.60003 11.35561 26.55625 11.53793 26.51247 L 11.76578 26.46876 L 12.03915 26.42498 C 12.49484 25.89997 12.72269 25.24377 12.67709 24.58749 C 12.63157 23.93129 12.3126 23.31871 11.76578 22.88127 C 11.58346 22.70622 11.53793 22.39997 11.72018 22.18129 C 11.90243 22.00623 12.17587 21.96253 12.40372 22.1375 C 12.72269 22.39997 12.99606 22.70622 13.17838 23.05625 L 13.22391 23.05625 C 13.99857 23.14374 14.77323 23.3625 15.45677 23.71253 C 15.5479 23.80002 15.63902 23.8875 15.68462 24.01877 C 15.73022 24.14997 15.68462 24.28124 15.5935 24.36873 C 15.41117 24.58749 15.1378 24.63127 14.90996 24.5 C 14.49986 24.28124 14.08969 24.10626 13.58848 24.06248 C 13.63408 24.19375 13.6796 24.36873 13.6796 24.5 C 13.7252 25.06871 13.63408 25.6375 13.40623 26.11873 C 13.77072 26.07502 14.13529 26.03124 14.49986 26.03124 C 14.81883 26.03124 15.1378 26.07502 15.45677 26.11873 C 16.04919 25.41874 16.82385 24.93752 17.73516 24.71876 C 18.92 24.14997 20.01363 23.40628 20.01363 22.18129 C 20.01363 22.00623 20.10475 21.78747 20.24148 21.69998 C 20.42372 21.6125 20.60597 21.6125 20.7883 21.69998 C 20.97054 21.78747 21.06166 22.00623 21.01606 22.18129 C 21.01606 23.14374 20.56045 24.01877 19.78578 24.58749 C 20.42372 24.63127 20.97054 24.93752 21.38063 25.37496 C 21.56288 25.59372 21.51736 25.89997 21.33511 26.07502 C 21.10726 26.25 20.7883 26.20622 20.60597 26.03124 C 20.37812 25.76878 19.78578 25.55002 18.92 25.59372 C 18.05413 25.59372 17.18835 25.89997 16.55041 26.42498 C 17.27947 26.73122 17.91749 27.25623 18.32758 27.91251 C 18.4643 28.13127 18.37318 28.43752 18.14533 28.6125 C 17.91749 28.74377 17.59852 28.65628 17.46179 28.43752 C 16.68713 27.08126 15.04668 26.68752 12.44924 27.30002 C 13.04166 27.78124 13.31511 28.52501 13.22391 29.26878 C 13.22391 29.44375 13.13278 29.61873 12.95054 29.70622 C 12.76829 29.79378 12.58597 29.79378 12.40372 29.66251 C 12.2214 29.57502 12.17587 29.35626 12.17587 29.18129 C 12.2214 28.04378 11.58346 27.82502 10.53542 27.51878 C 10.3987 27.47499 10.21645 27.43129 10.07973 27.3875 C 9.806282 28 9.213943 28.48122 8.530402 28.65628 C 8.348156 28.69998 8.165832 28.65628 8.029186 28.52501 C 7.892463 28.39374 7.846862 28.21876 7.892463 28 C 7.937985 27.82502 8.074709 27.69375 8.302555 27.64997 C 8.667126 27.56248 8.940495 27.30002 9.122819 26.99377 L 9.122819 26.94998 C 8.257033 26.60003 7.573493 25.94375 7.254523 25.1125 C 7.163322 24.93752 7.117799 24.71876 7.117799 24.5 C 7.026676 24.58749 6.935553 24.67498 6.889953 24.80625 C 6.707706 25.15628 6.570983 25.59372 6.525382 25.98753 C 6.479859 26.16251 6.343136 26.33749 6.206412 26.38127 C 6.024166 26.46876 5.841919 26.42498 5.705196 26.29378 C 5.568473 26.16251 5.477349 25.98753 5.568473 25.81248 C 5.659595 25.28747 5.796319 24.80625 6.069689 24.36873 C 6.343136 23.93129 6.707706 23.58126 7.208922 23.3625 C 7.254523 22.75 7.48237 22.1375 7.801339 21.56871 C 7.48237 21.17498 7.072199 20.86873 6.616505 20.60626 C 6.479859 20.51877 6.388737 20.34372 6.343136 20.16874 C 6.343136 19.99377 6.434259 19.81871 6.616505 19.73123 C 6.798829 19.64374 6.981075 19.64374 7.117799 19.77501 C 7.573493 20.08126 7.983586 20.3875 8.348156 20.78124 C 8.621526 20.56248 8.894973 20.3875 9.168342 20.21253 C 9.624036 19.94998 9.988606 19.64374 10.3531 19.25 C 10.76327 18.76877 10.76327 17.85003 10.76327 17.06248 L 10.76327 14.43752 L 8.667126 14.43752 C 8.667126 17.67498 7.026676 17.85003 6.844352 17.93752 C 6.16089 18.1125 4.383716 19.03124 3.973623 20.86873 C 3.928022 20.95622 3.928022 21.08749 3.928022 21.17498 C 3.153359 22.22499 3.198959 23.66874 4.064746 24.67498 C 3.973623 24.98122 3.928022 25.28747 3.928022 25.59372 C 3.928022 26.99377 4.976055 28.21876 6.434259 28.48122 C 6.889953 29.70622 8.074709 30.53747 9.396189 30.49377 C 9.624036 30.49377 9.897483 30.44998 10.12533 30.40628 C 10.67215 31.01877 11.44681 31.36873 12.3126 31.45622 C 13.17838 31.5 13.99857 31.23753 14.63651 30.66874 C 15.45677 31.19375 16.45928 31.32502 17.37067 31.06248 C 18.32758 30.80002 19.05664 30.10003 19.37561 29.22499 L 19.55794 29.22499 C 21.28951 29.22499 22.65659 27.91251 22.70211 26.25 L 22.70211 26.11873 C 23.75022 25.55002 24.34256 24.45622 24.25144 23.31871 C 23.88687 21.78747 22.47427 20.60626 20.83382 20.64997 Z M 30.53987 16.05625 L 27.39562 21.26247 L 27.39562 21.43752 C 27.57794 26.25 25.02611 30.75623 20.69709 33.16251 C 16.36816 35.6125 11.03664 35.6125 6.707706 33.16251 C 2.378695 30.75623 -0.1731418 26.25 0.00918235 21.43752 C 0.00918235 17.32502 1.968602 13.43129 5.386226 10.93752 L 5.386226 0 L 19.78578 0 L 19.78578 5.206218 L 22.01857 5.206218 C 23.47678 5.206218 24.84386 5.731225 25.84637 6.737534 C 26.8488 7.699985 27.39562 9.056247 27.39562 10.41251 L 27.39562 13.03747 L 29.40064 13.03747 C 30.58539 13.12496 31.6335 14.43752 30.53987 16.05625 Z" style="fill: rgb(0, 0, 0); fill-rule: evenodd; fill-opacity: 1;"/>
      </g>
    </g>
    <g transform="matrix(0.561551, 0, 0, -0.567147, 400.816162, 54.862595)" style="">
      <g transform="">
        <path d="M 42 27.5 C 42 26.11924 40.65687 24.99993 39 24.99993 C 37.34313 24.99993 36 26.11924 36 27.5 C 36 28.88068 37.34313 30 39 30 C 40.65687 30 42 28.88068 42 27.5 Z" style="fill: rgb(0, 0, 0); fill-rule: evenodd; fill-opacity: 1;"/>
        <path d="M 9 27.5 C 9 26.11924 7.656872 24.99993 6 24.99993 C 4.343128 24.99993 3 26.11924 3 27.5 C 3 28.88068 4.343128 30 6 30 C 7.656872 30 9 28.88068 9 27.5 Z" style="fill: rgb(0, 0, 0); fill-rule: evenodd; fill-opacity: 1;"/>
        <path d="M 31 27.5 C 31 26.11924 29.65687 24.99993 28 24.99993 C 26.34313 24.99993 25 26.11924 25 27.5 C 25 28.88068 26.34313 30 28 30 C 29.65687 30 31 28.88068 31 27.5 Z" style="fill: rgb(0, 0, 0); fill-rule: evenodd; fill-opacity: 1;"/>
        <path d="M 20 27.5 C 20 26.11924 18.65687 24.99993 17 24.99993 C 15.34313 24.99993 14 26.11924 14 27.5 C 14 28.88068 15.34313 30 17 30 C 18.65687 30 20 28.88068 20 27.5 Z" style="fill: rgb(0, 0, 0); fill-rule: evenodd; fill-opacity: 1;"/>
        <path d="M 44.97654 14.1333 L 43.26046 21.91999 C 43.20684 22.1333 43.09957 22.34668 42.88513 22.5067 C 42.24158 22.98668 41.54446 23.41337 40.74002 23.62668 C 40.0429 23.83998 39.34572 24 38.59498 24 C 37.84416 24 37.09342 23.89335 36.44986 23.62668 C 35.64549 23.36 34.9483 22.98668 34.30482 22.5067 C 34.0903 22.34668 33.98304 22.1333 33.92941 21.91999 L 33.23222 18.77329 L 33.23222 18.77329 L 32.53511 21.91999 C 32.48148 22.1333 32.37422 22.34668 32.1597 22.5067 C 31.51622 22.98668 30.81903 23.41337 30.01466 23.62668 C 29.31747 23.83998 28.62036 24 27.86955 24 C 27.1188 24 26.36799 23.89335 25.72451 23.62668 C 24.92006 23.36 24.22295 22.98668 23.57939 22.5067 C 23.36487 22.34668 23.25761 22.1333 23.20398 21.91999 L 22.50687 18.82666 L 22.50687 18.77329 L 21.80968 21.91999 C 21.75605 22.1333 21.64879 22.34668 21.43435 22.5067 C 20.79079 22.98668 20.09368 23.41337 19.28923 23.62668 C 18.59212 23.83998 17.89493 24 17.14419 24 C 16.39337 24 15.64263 23.89335 14.99907 23.62668 C 14.1947 23.36 13.49751 22.98668 12.85403 22.5067 C 12.63952 22.34668 12.53226 22.1333 12.47863 21.91999 L 11.78144 18.82666 L 11.78144 18.82666 L 11.08433 21.91999 C 11.0307 22.1333 10.92344 22.34668 10.70892 22.5067 C 10.06544 22.98668 9.368248 23.41337 8.563877 23.62668 C 7.866689 23.83998 7.169579 24 6.418761 24 C 5.66802 24 4.917202 23.89335 4.273721 23.62668 C 3.469273 23.36 2.772162 22.98668 2.128604 22.5067 C 1.914084 22.34668 1.806825 22.1333 1.753195 21.91999 L 0.03719365 14.18666 C -0.1236959 13.59995 0.2516359 12.95996 0.8951942 12.8533 C 0.948824 12.8533 1.002454 12.8533 1.056084 12.8533 C 1.538675 12.8533 1.967714 13.17334 2.128604 13.70661 L 3.737422 20.80002 L 3.737422 17.01332 L 2.128604 9.066608 L 3.737422 9.066608 L 3.737422 -0.0000790943 L 5.882462 -0.0000790943 L 5.882462 9.066608 L 6.955059 9.066608 L 6.955059 -0.0000790943 L 9.100099 -0.0000790943 L 9.100099 9.066608 L 10.70892 9.066608 L 9.100099 17.01332 L 9.100099 20.80002 L 10.70892 13.65332 C 10.81618 13.17334 11.24522 12.79994 11.72781 12.79994 L 11.72781 12.79994 C 12.21048 12.79994 12.63952 13.11997 12.74677 13.65332 L 14.46278 20.80002 L 14.46278 12.26667 L 14.46278 -0.0000790943 L 16.60789 -0.0000790943 L 16.60789 12.26667 L 17.68041 12.26667 L 17.68041 -0.0000790943 L 19.82553 -0.0000790943 L 19.82553 12.26667 L 19.82553 20.80002 L 21.43435 13.65332 C 21.54161 13.17334 21.97057 12.79994 22.50687 12.79994 C 22.50687 12.79994 22.50687 12.79994 22.50687 12.79994 L 22.50687 12.79994 C 22.98954 12.79994 23.4185 13.11997 23.52576 13.65332 L 25.18821 20.80002 L 25.18821 16.95996 L 23.57939 9.066608 L 25.18821 9.066608 L 25.18821 -0.0000790943 L 27.33325 -0.0000790943 L 27.33325 9.066608 L 28.40584 9.066608 L 28.40584 -0.0000790943 L 30.55088 -0.0000790943 L 30.55088 9.066608 L 32.1597 9.066608 L 30.55088 17.06661 L 30.55088 20.80002 L 32.1597 13.65332 C 32.26696 13.17334 32.696 12.79994 33.23222 12.79994 C 33.23222 12.79994 33.23222 12.79994 33.23222 12.79994 L 33.23222 12.79994 C 33.23222 12.79994 33.23222 12.79994 33.23222 12.79994 C 33.71489 12.79994 34.14393 13.11997 34.30482 13.65332 L 35.91356 20.80002 L 35.91356 12.26667 L 35.91356 -0.0000790943 L 38.05868 -0.0000790943 L 38.05868 12.26667 L 39.1312 12.26667 L 39.1312 -0.0000790943 L 41.27631 -0.0000790943 L 41.27631 12.26667 L 41.27631 20.80002 L 42.88513 13.65332 C 42.99239 13.17334 43.42135 12.79994 43.95765 12.79994 C 44.06491 12.79994 44.2258 12.79994 44.33306 12.8533 C 44.81566 13.06661 45.0838 13.59995 44.97654 14.1333 Z" style="fill: rgb(0, 0, 0); fill-rule: evenodd; fill-opacity: 1;"/>
      </g>
    </g>
    <g transform="matrix(0.421399, 0, 0, -0.51977, 373.277191, 32.343861)" style="">
      <g transform="">
        <path d="M 3.75004 8.166675 L 6.250014 8.166675 L 6.250014 5.83335 L 3.75004 5.83335 L 3.75004 8.166675 Z M 3.75004 12.83332 L 6.250014 12.83332 L 6.250014 10.5 L 3.75004 10.5 L 3.75004 12.83332 Z M 3.75004 17.49997 L 6.250014 17.49997 L 6.250014 15.16665 L 3.75004 15.16665 L 3.75004 17.49997 Z M 8.750067 8.166675 L 11.25004 8.166675 L 11.25004 5.83335 L 8.750067 5.83335 L 8.750067 8.166675 Z M 8.750067 12.83332 L 11.25004 12.83332 L 11.25004 10.5 L 8.750067 10.5 L 8.750067 12.83332 Z M 8.750067 17.49997 L 11.25004 17.49997 L 11.25004 15.16665 L 8.750067 15.16665 L 8.750067 17.49997 Z M 0 0 L 6.250014 0 L 6.250014 3.500026 L 8.750067 3.500026 L 8.750067 0 L 15.00008 0 L 15.00008 21 L 0 21 L 0 0 Z" style="fill: rgb(0, 0, 0); fill-rule: evenodd; fill-opacity: 1;"/>
        <path d="M 20.75004 8.49996 L 23.25001 8.49996 L 23.25001 6.071388 L 20.75004 6.071388 L 20.75004 8.49996 Z M 20.75004 13.3571 L 23.25001 13.3571 L 23.25001 10.92853 L 20.75004 10.92853 L 20.75004 13.3571 Z M 25.75007 8.49996 L 28.25004 8.49996 L 28.25004 6.071388 L 25.75007 6.071388 L 25.75007 8.49996 Z M 25.75007 13.3571 L 28.25004 13.3571 L 28.25004 10.92853 L 25.75007 10.92853 L 25.75007 13.3571 Z M 17 -0.0000802213 L 23.25001 -0.0000802213 L 23.25001 3.642817 L 25.75007 3.642817 L 25.75007 -0.0000802213 L 32.00008 -0.0000802213 L 32.00008 17 L 17 17 L 17 -0.0000802213 Z" style="fill: rgb(0, 0, 0); fill-rule: evenodd; fill-opacity: 1;"/>
        <path d="M 45.25004 29.39999 L 42.75007 29.39999 L 42.75007 31.79999 L 45.25004 31.79999 L 45.25004 29.39999 Z M 45.25004 25.19998 L 42.75007 25.19998 L 42.75007 27.59998 L 45.25004 27.59998 L 45.25004 25.19998 Z M 45.25004 20.39999 L 42.75007 20.39999 L 42.75007 22.79999 L 45.25004 22.79999 L 45.25004 20.39999 Z M 45.25004 15.59993 L 42.75007 15.59993 L 42.75007 18 L 45.25004 18 L 45.25004 15.59993 Z M 45.25004 10.79994 L 42.75007 10.79994 L 42.75007 13.19993 L 45.25004 13.19993 L 45.25004 10.79994 Z M 45.25004 5.999945 L 42.75007 5.999945 L 42.75007 8.399941 L 45.25004 8.399941 L 45.25004 5.999945 Z M 40.25001 29.39999 L 37.75004 29.39999 L 37.75004 31.79999 L 40.25001 31.79999 L 40.25001 29.39999 Z M 40.25001 25.19998 L 37.75004 25.19998 L 37.75004 27.59998 L 40.25001 27.59998 L 40.25001 25.19998 Z M 40.25001 20.39999 L 37.75004 20.39999 L 37.75004 22.79999 L 40.25001 22.79999 L 40.25001 20.39999 Z M 40.25001 15.59993 L 37.75004 15.59993 L 37.75004 18 L 40.25001 18 L 40.25001 15.59993 Z M 40.25001 10.79994 L 37.75004 10.79994 L 37.75004 13.19993 L 40.25001 13.19993 L 40.25001 10.79994 Z M 40.25001 5.999945 L 37.75004 5.999945 L 37.75004 8.399941 L 40.25001 8.399941 L 40.25001 5.999945 Z M 34 36 L 34 -0.0000792714 L 40.25001 -0.0000792714 L 40.25001 3.599953 L 42.75007 3.599953 L 42.75007 -0.0000792714 L 49.00008 -0.0000792714 L 49.00008 34.19998 L 34 36 Z" style="fill: rgb(0, 0, 0); fill-rule: evenodd; fill-opacity: 1;"/>
        <path d="M 17.16673 28.59998 L 19.50004 28.59998 L 19.50004 26.19998 L 17.16673 26.19998 L 17.16673 28.59998 Z M 17.16673 33.39997 L 19.50004 33.39997 L 19.50004 30.99997 L 17.16673 30.99997 L 17.16673 33.39997 Z M 14.83335 30.99997 L 12.50004 30.99997 L 12.50004 33.39997 L 14.83335 33.39997 L 14.83335 30.99997 Z M 14.83335 26.19998 L 12.50004 26.19998 L 12.50004 28.59998 L 14.83335 28.59998 L 14.83335 26.19998 Z M 17.16673 19 L 23.00008 19 L 23.00008 37 L 9 37 L 9 23.79999 L 17.16673 23.79999 L 17.16673 19 Z" style="fill: rgb(0, 0, 0); fill-rule: evenodd; fill-opacity: 1;"/>
      </g>
    </g>
    <g transform="matrix(0.639679, 0, 0, -0.727797, 373.14682, 75.629402)" style="">
      <g transform="">
        <path d="M 31.60992 4.666629 C 31.60992 4.16106 31.00283 3.694392 29.991 3.344407 L 29.991 4.744419 C 30.55761 4.899923 31.12421 5.133297 31.60992 5.366594 L 31.60992 4.666629 Z M 28.37201 7.233277 L 28.37201 8.633288 C 28.93869 8.788872 29.5053 9.022168 29.991 9.255542 L 29.991 8.555497 C 29.991 8.049931 29.38391 7.58326 28.37201 7.233277 Z M 28.37201 2.877736 C 27.88638 2.76105 27.3197 2.683258 26.75309 2.605467 L 26.75309 4.122165 C 27.27929 4.199958 27.84589 4.277748 28.37201 4.355539 L 28.37201 2.877736 Z M 25.13417 8.011036 C 25.66029 8.088826 26.2269 8.166618 26.75309 8.244409 L 26.75309 6.766606 C 26.26738 6.649918 25.70078 6.572204 25.13417 6.494414 L 25.13417 8.011036 Z M 25.13417 2.411065 C 24.60798 2.37217 24.08186 2.333275 23.51518 2.333275 L 23.51518 3.88887 C 24.00088 3.88887 24.56749 3.927687 25.13417 3.966582 L 25.13417 2.411065 Z M 21.89626 6.222145 L 21.89626 7.777738 C 22.38197 7.777738 22.94857 7.816635 23.51518 7.85553 L 23.51518 6.299936 C 22.98906 6.261041 22.46287 6.261041 21.89626 6.222145 Z M 21.89626 2.333275 C 21.32966 2.333275 20.80346 2.37217 20.27734 2.411065 L 20.27734 3.88887 C 20.56061 3.88887 20.80346 3.88887 21.0868 3.88887 C 21.32966 3.88887 21.61292 3.88887 21.89626 3.88887 L 21.89626 2.333275 Z M 18.65835 7.85553 C 19.18454 7.816635 19.71066 7.777738 20.27734 7.777738 L 20.27734 6.222145 C 19.71066 6.222145 19.18454 6.261041 18.65835 6.299936 L 18.65835 7.85553 Z M 18.65835 2.605467 C 18.09174 2.683258 17.52506 2.76105 17.03943 2.877736 L 17.03943 4.122165 C 17.56555 4.044375 18.09174 4.005479 18.65835 3.966582 L 18.65835 2.605467 Z M 15.42044 6.766606 L 15.42044 8.283304 C 15.94663 8.205514 16.47275 8.088826 17.03943 8.049931 L 17.03943 6.494414 C 16.47275 6.572204 15.90614 6.649918 15.42044 6.766606 Z M 15.42044 3.344407 C 14.40861 3.733287 13.80152 4.199958 13.80152 4.666629 L 13.80152 4.744419 C 13.80152 4.744419 13.80152 4.744419 13.84201 4.744419 C 13.96339 4.705524 14.04437 4.666629 14.16576 4.666629 C 14.57049 4.549941 14.97522 4.47215 15.42044 4.394357 L 15.42044 3.344407 Z M 8.944689 8.633288 C 9.228031 8.633288 9.470806 8.594393 9.754148 8.594393 L 9.754148 8.555497 C 9.754148 8.011036 9.875535 7.466651 10.15888 7.038875 C 9.754148 7.038875 9.349419 7.077694 8.944689 7.116589 L 8.944689 8.633288 Z M 7.325772 13.29999 C 7.851889 13.2222 8.378084 13.10552 8.944689 13.06662 L 8.944689 11.5111 C 8.378084 11.58882 7.8114 11.66661 7.325772 11.7833 L 7.325772 13.29999 Z M 7.325772 7.272172 C 6.759088 7.349963 6.192483 7.427756 5.706777 7.544365 L 5.706777 9.061063 C 6.232972 8.983272 6.759088 8.866663 7.325772 8.827767 L 7.325772 7.272172 Z M 4.08786 13.61108 L 4.08786 14.31105 C 4.573488 14.07775 5.099683 13.88327 5.706777 13.72777 L 5.706777 12.28886 C 4.694954 12.63884 4.08786 13.10552 4.08786 13.61108 Z M 4.08786 8.011036 C 3.076037 8.399992 2.468864 8.866663 2.468864 9.333255 L 2.468864 10.0333 C 2.954571 9.799926 3.480766 9.605525 4.08786 9.449942 L 4.08786 8.011036 Z M 2.468864 20.14439 C 2.954571 19.9111 3.480766 19.71662 4.08786 19.56111 L 4.08786 18.1222 C 3.076037 18.51108 2.468864 18.97775 2.468864 19.44442 L 2.468864 20.14439 Z M 7.325772 18.89996 L 7.325772 17.34445 C 6.759088 17.42224 6.192483 17.49995 5.706777 17.61664 L 5.706777 19.13334 C 6.232972 19.05555 6.759088 18.97775 7.325772 18.89996 Z M 11.37306 25.66665 C 16.31087 25.66665 20.27734 24.6167 20.27734 23.33329 C 20.27734 22.04997 16.31087 21.00002 11.37306 21.00002 C 6.435337 21.00002 2.468864 22.04997 2.468864 23.33329 C 2.468864 24.6167 6.435337 25.66665 11.37306 25.66665 Z M 13.80152 7.233277 C 12.7897 7.622156 12.1826 8.088826 12.1826 8.555497 L 12.1826 9.255542 C 12.66823 9.022168 13.19443 8.827767 13.80152 8.672184 L 13.80152 7.233277 Z M 18.65835 18.1222 L 18.65835 19.52222 C 19.22495 19.67772 19.79164 19.9111 20.27734 20.14439 L 20.27734 19.44442 C 20.27734 18.93886 19.67017 18.47219 18.65835 18.1222 Z M 15.42044 17.38334 L 15.42044 18.89996 C 15.94663 18.97775 16.51324 19.05555 17.03943 19.13334 L 17.03943 17.65553 C 16.55373 17.53885 15.98712 17.46106 15.42044 17.38334 Z M 12.1826 17.11107 L 12.1826 18.66667 C 12.66823 18.66667 13.23491 18.70556 13.80152 18.74446 L 13.80152 17.18886 C 13.27532 17.14997 12.74921 17.14997 12.1826 17.11107 Z M 8.944689 17.18886 L 8.944689 18.74446 C 9.470806 18.70556 9.997001 18.66667 10.56361 18.66667 L 10.56361 17.11107 C 9.997001 17.14997 9.470806 17.14997 8.944689 17.18886 Z M 29.991 12.44444 C 29.991 11.16104 26.02453 10.11109 21.0868 10.11109 C 16.149 10.11109 12.1826 11.16104 12.1826 12.44444 C 12.1826 13.72777 16.149 14.77772 21.0868 14.77772 C 26.02453 14.77772 29.991 13.72777 29.991 12.44444 Z M 32.41938 11.27773 L 32.41938 12.44444 C 32.41938 14.27223 30.92185 15.59445 28.00777 16.33331 C 26.91497 16.60551 25.66029 16.83888 24.24374 16.95557 C 24.28423 17.11107 24.28423 17.30555 24.28423 17.49995 C 24.28423 18.58888 23.75803 19.52222 22.66523 20.22218 L 22.66523 23.33329 C 22.66523 25.16108 21.1677 26.4833 18.25362 27.22224 C 16.35136 27.72781 13.92291 28 11.33266 28 C 7.932866 28 0 27.53333 0 23.33329 L 0 19.44442 C 0 18.3555 0.5261951 17.42224 1.618917 16.72219 L 1.618917 15.98333 C 0.6475825 15.32218 0 14.42774 0 13.2222 L 0 9.333255 C 0 7.505546 1.49753 6.183248 4.411612 5.444387 C 6.313871 4.938819 8.742325 4.666629 11.33266 4.666629 C 11.33266 2.838841 12.83018 1.516621 15.74427 0.777758 C 17.64653 0.272192 20.0749 -0.0000791533 22.66523 -0.0000791533 C 26.06502 -0.0000791533 33.99789 0.4665916 33.99789 4.666629 L 33.99789 8.555497 C 34.03837 9.644421 33.51218 10.57776 32.41938 11.27773 Z" style="fill: rgb(0, 0, 0); fill-rule: evenodd; fill-opacity: 1;"/>
      </g>
    </g>
  </g>
  <g transform="matrix(1, 0, 0, 1, 157.486572, 31.264866)"/>
  <g transform="matrix(1, 0, 0, 1, 157.486572, 31.264866)"/>
  <g transform="matrix(1, 0, 0, 1, 157.486572, 31.264866)"/>
  <g transform="matrix(1, 0, 0, 1, 157.486572, 31.264866)"/>
  <g transform="matrix(1, 0, 0, 1, 157.486572, 31.264866)"/>
  <g transform="matrix(1, 0, 0, 1, 157.486572, 31.264866)"/>
  <g transform="matrix(1, 0, 0, 1, 157.486572, 31.264866)"/>
  <g transform="matrix(1, 0, 0, 1, 157.486572, 31.264866)"/>
  <g transform="matrix(1, 0, 0, 1, 157.486572, 31.264866)"/>
  <g transform="matrix(1, 0, 0, 1, 157.486572, 31.264866)"/>
  <g transform="matrix(1, 0, 0, 1, 157.486572, 31.264866)"/>
  <g transform="matrix(1, 0, 0, 1, 157.486572, 31.264866)"/>
  <g transform="matrix(1, 0, 0, 1, 157.486572, 31.264866)"/>
  <g transform="matrix(1, 0, 0, 1, 157.486572, 31.264866)"/>
  <g transform="matrix(1, 0, 0, 1, 157.486572, 31.264866)"/>
  <g transform="matrix(0.124997, 0, 0, 0.125, 31.910931, -203.321228)">
    <g>
      <rect x="150.641" y="61.91" width="30.23" height="91.49"/>
    </g>
  </g>
  <g transform="matrix(0.124997, 0, 0, 0.125, 31.910931, -203.321228)">
    <g>
      <rect x="88.334" y="103.167" transform="matrix(0.866 -0.5 0.5 0.866 -54.4563 70.0312)" width="30.229" height="66.925"/>
    </g>
  </g>
  <g transform="matrix(0.124997, 0, 0, 0.125, 31.910931, -203.321228)">
    <g>
      <rect x="7.659" y="229.456" width="66.926" height="30.23"/>
    </g>
  </g>
  <g transform="matrix(0.124997, 0, 0, 0.125, 31.910931, -203.321228)">
    <g>
      <rect x="32.066" y="130.363" transform="matrix(0.5 -0.866 0.866 0.5 -128.9219 128.9107)" width="30.229" height="91.488"/>
    </g>
  </g>
  <g transform="matrix(0.124997, 0, 0, 0.125, 31.910931, -203.321228)">
    <g>
      <rect x="1.429" y="297.925" transform="matrix(0.866 -0.5 0.5 0.866 -150.2031 65.5282)" width="91.488" height="30.229"/>
    </g>
  </g>
  <g transform="matrix(0.124997, 0, 0, 0.125, 31.910931, -203.321228)">
    <g>
      <rect x="194.606" y="121.518" transform="matrix(0.5 -0.866 0.866 0.5 -4.2946 265.8262)" width="66.925" height="30.229"/>
    </g>
  </g>
  <g transform="matrix(0.124997, 0, 0, 0.125, 31.910931, -203.321228)">
    <g>
      <path d="M430.667,287.414c-3.724,0-7.503,0.261-11.23,0.774l-11.519,1.588l-4.489-10.727 c-17.773-42.474-59.003-69.92-105.038-69.92c-54.626,0-101.648,38.889-111.807,92.469l-2.256,11.898l-12.104,0.393 c-17.716,0.575-34.283,7.913-46.651,20.662c-12.393,12.776-19.218,29.618-19.218,47.422c0,37.565,30.561,68.127,68.126,68.127 h256.185c44.853,0,81.344-36.491,81.344-81.344C512.01,323.905,475.52,287.414,430.667,287.414z"/>
    </g>
  </g>
  <g transform="matrix(0.124997, 0, 0, 0.125, 31.910931, -203.321228)">
    <g>
      <path d="M165.76,168.514c-41.94,0-76.06,34.12-76.06,76.06c0,22.789,10.147,43.793,26.791,57.954 c12.695-9.298,27.378-15.386,42.984-17.768c10.177-37.188,34.659-67.854,66.711-86.441 C212.146,179.961,190.085,168.514,165.76,168.514z"/>
    </g>
  </g>
  <g transform="matrix(0.124997, 0, 0, 0.125, 31.910931, -203.321228)"/>
  <g transform="matrix(0.124997, 0, 0, 0.125, 31.910931, -203.321228)"/>
  <g transform="matrix(0.124997, 0, 0, 0.125, 31.910931, -203.321228)"/>
  <g transform="matrix(0.124997, 0, 0, 0.125, 31.910931, -203.321228)"/>
  <g transform="matrix(0.124997, 0, 0, 0.125, 31.910931, -203.321228)"/>
  <g transform="matrix(0.124997, 0, 0, 0.125, 31.910931, -203.321228)"/>
  <g transform="matrix(0.124997, 0, 0, 0.125, 31.910931, -203.321228)"/>
  <g transform="matrix(0.124997, 0, 0, 0.125, 31.910931, -203.321228)"/>
  <g transform="matrix(0.124997, 0, 0, 0.125, 31.910931, -203.321228)"/>
  <g transform="matrix(0.124997, 0, 0, 0.125, 31.910931, -203.321228)"/>
  <g transform="matrix(0.124997, 0, 0, 0.125, 31.910931, -203.321228)"/>
  <g transform="matrix(0.124997, 0, 0, 0.125, 31.910931, -203.321228)"/>
  <g transform="matrix(0.124997, 0, 0, 0.125, 31.910931, -203.321228)"/>
  <g transform="matrix(0.124997, 0, 0, 0.125, 31.910931, -203.321228)"/>
  <g transform="matrix(0.124997, 0, 0, 0.125, 31.910931, -203.321228)"/>
</svg>